<?xml version="1.0" standalone="no"?>
<!DOCTYPE svg PUBLIC "-//W3C//DTD SVG 20010904//EN"
 "http://www.w3.org/TR/2001/REC-SVG-20010904/DTD/svg10.dtd">
<svg version="1.0" xmlns="http://www.w3.org/2000/svg"
 width="100px" height="100px" viewBox="0 0 813.000000 1289.000000"
 preserveAspectRatio="xMidYMid meet">
<g transform="translate(0.000000,1289.000000) scale(0.100000,-0.100000)"
fill="#000000" stroke="none">
<path d="M2139 12382 c-64 -42 -212 -219 -259 -312 -46 -91 -146 -357 -170
-455 -4 -16 -22 -77 -38 -135 -34 -114 -72 -290 -103 -470 -10 -63 -24 -137
-29 -165 -5 -27 -12 -72 -15 -100 -3 -27 -10 -77 -15 -110 -9 -61 -31 -263
-50 -460 -6 -60 -15 -184 -20 -275 -5 -91 -15 -237 -21 -325 -24 -355 -7
-1411 31 -1852 6 -62 14 -166 20 -230 12 -139 14 -161 40 -403 38 -339 100
-778 145 -1020 9 -47 22 -123 31 -170 21 -120 128 -589 171 -750 20 -74 47
-175 60 -225 49 -186 211 -695 284 -890 325 -878 711 -1552 1199 -2089 321
-354 672 -612 1045 -771 131 -56 436 -139 587 -160 231 -32 554 -12 753 46
475 139 827 423 1243 999 183 255 421 604 490 722 107 182 105 182 -65 11
-169 -171 -338 -307 -505 -407 -125 -75 -328 -165 -445 -200 -319 -93 -768
-113 -1008 -45 -223 63 -449 175 -624 308 -113 86 -271 227 -340 305 -31 35
-85 96 -121 136 -82 92 -231 301 -353 495 -198 315 -312 544 -524 1055 -65
156 -257 706 -298 855 -12 44 -37 132 -54 195 -164 582 -251 1006 -355 1730
-62 432 -126 1089 -151 1565 -3 50 -9 176 -15 280 -8 146 -20 655 -22 945 -4
429 -24 1004 -49 1414 -28 466 -124 814 -260 941 -43 41 -53 45 -97 45 -36 0
-59 -7 -93 -28z"/>
</g>
</svg>
