<?xml version="1.0" standalone="no"?>
<!DOCTYPE svg PUBLIC "-//W3C//DTD SVG 20010904//EN"
 "http://www.w3.org/TR/2001/REC-SVG-20010904/DTD/svg10.dtd">
<svg version="1.0" xmlns="http://www.w3.org/2000/svg"
 width="100px" height="100px" viewBox="0 0 1452.000000 1389.000000"
 preserveAspectRatio="xMidYMid meet">
<g transform="translate(0.000000,1389.000000) scale(0.100000,-0.100000)"
fill="#000000" stroke="none">
<path d="M10565 12284 c-22 -2 -125 -8 -230 -14 -216 -13 -310 -26 -547 -75
-319 -68 -547 -134 -819 -240 -601 -234 -1175 -640 -1626 -1152 -112 -127
-124 -165 -33 -107 116 75 285 139 485 183 103 23 504 85 645 101 52 5 136 14
185 20 50 6 151 17 225 25 74 8 167 19 205 25 204 29 543 59 925 80 347 20
767 -19 980 -90 412 -137 486 -355 298 -875 -91 -248 -226 -496 -486 -890
-145 -220 -278 -408 -337 -480 -23 -27 -76 -96 -118 -152 -132 -175 -577 -699
-771 -907 -175 -188 -591 -619 -647 -670 -30 -27 -124 -118 -209 -201 -85 -83
-191 -182 -235 -220 -44 -38 -130 -114 -191 -170 -187 -170 -375 -331 -595
-512 -549 -452 -767 -622 -1329 -1033 -63 -46 -155 -114 -205 -150 -414 -305
-1834 -1244 -2411 -1595 -90 -55 -215 -134 -366 -233 -28 -17 -91 -57 -142
-87 -160 -96 -417 -254 -536 -329 -63 -40 -140 -87 -170 -105 -30 -17 -140
-84 -245 -148 -166 -101 -365 -223 -875 -531 -69 -42 -214 -136 -322 -209
-109 -73 -211 -139 -228 -148 -16 -8 -30 -21 -30 -28 0 -7 35 -29 78 -49 124
-59 221 -71 492 -65 200 5 241 9 375 37 169 35 381 89 500 127 217 70 676 249
905 353 63 28 156 70 205 92 372 166 1060 515 1485 753 91 51 187 105 215 120
27 15 124 70 215 123 91 52 208 120 260 150 52 30 122 71 155 92 33 20 112 68
175 105 63 37 149 89 190 115 41 25 136 84 210 130 400 248 760 493 1494 1015
23 17 89 66 147 111 57 44 163 125 234 179 72 54 164 126 206 159 43 34 123
97 179 141 57 44 159 127 228 185 69 58 165 137 212 175 90 73 306 261 495
430 699 627 1422 1384 1947 2039 357 445 728 1006 915 1381 146 295 269 666
320 970 27 166 22 498 -11 667 -27 138 -101 343 -173 481 -267 506 -857 838
-1592 896 -128 10 -215 12 -306 5z"/>
</g>
</svg>
